<?xml version="1.0" encoding="UTF-8"?><svg id="Layer_1" xmlns="http://www.w3.org/2000/svg" viewBox="0 0 745.25 91.93"><path d="M296.72,79.83v-6.28h7.17l2.69-6.54-13.82-31.49h8.28l9.49,22.42h.26l9.18-22.42h7.96l-13.55,31.65-5.31,12.66h-12.36Z"/><path d="M106.14,46.33c0-13.83,8.72-22.96,22.42-22.96,11.51,0,19.01,6.2,19.76,15.19h-7.36c-1.29-5.38-5.31-8.45-9.2-8.45h-6.2c-6.34,0-11.99,7.15-11.99,16.08s5.79,15.94,12.54,15.94h4.57c5.04,0,8.99-3,10.63-6.2v-5.66h-10.97v-6.06h17.78v13.9c-2.73,5.31-8.86,10.77-19.62,10.77-13.56,0-22.35-8.31-22.35-22.55Z"/><path d="M153.44,51.78c0-10.42,6.95-17.17,17.1-17.17,9.61,0,16.01,5.86,16.01,17.51v1.64h-25.96c.68,4.97,3.82,8.86,8.52,8.86h2.93c3.68,0,6.06-2.25,6.81-5.11h7.09c-.89,6.54-6.27,11.38-15.6,11.38-10.77,0-16.9-7.22-16.9-17.1ZM179.33,48.31c-.34-4.57-3.54-7.43-7.02-7.43h-3.75c-3.75,0-6.75,2.93-7.7,7.43h18.46Z"/><path d="M191.68,34.61h17.85c8.04,0,12.74,4.57,12.74,12.95v20.37h-7.15v-19.15c0-4.7-2.38-7.49-5.79-7.49h-10.49v26.64h-7.15v-33.32Z"/><path d="M228.29,24.32h7.36v36.86h16.26v6.75h-23.62V24.32Z"/><path d="M253.95,51.71c0-10.08,6.54-17.1,15.88-17.1,4.84,0,8.79,2.25,10.9,4.84v-3.88h7.02v32.36h-7.02v-4.57c-2.45,3.13-6,5.52-11.11,5.52-9.4,0-15.67-7.02-15.67-17.17ZM269.15,62.48h4.29c4.02,0,7.09-3.41,7.09-7.84v-5.66c0-4.29-2.86-7.97-7.09-7.97h-4.29c-4.43,0-8.04,4.77-8.04,10.7s3.61,10.77,8.04,10.77Z"/><path d="M327.94,51.78c0-10.42,6.95-17.17,17.1-17.17,9.61,0,16.01,5.86,16.01,17.51v1.64h-25.96c.68,4.97,3.82,8.86,8.52,8.86h2.93c3.68,0,6.06-2.25,6.81-5.11h7.09c-.89,6.54-6.27,11.38-15.6,11.38-10.77,0-16.9-7.22-16.9-17.1ZM353.83,48.31c-.34-4.57-3.54-7.43-7.02-7.43h-3.75c-3.75,0-6.75,2.93-7.7,7.43h18.46Z"/><path d="M366.18,35.57h19.15v6.88h-11.99v25.48h-7.15v-32.36Z"/><polygon points="44.26 32.35 27.72 67.12 43.29 74.9 0 91.93 44.26 0 44.26 32.35"/><polygon points="53.5 32.35 70.04 67.12 54.47 74.9 97.76 91.93 53.5 0 53.5 32.35"/><polygon points="48.64 43.78 58.33 62.94 48.64 67.69 39.47 62.92 48.64 43.78"/><path d="M714.81,35.84h17.76c8,0,12.68,4.54,12.68,12.88v19.21h-7.12v-17.99c0-4.68-2.37-7.46-5.76-7.46h-10.44v25.45h-7.12v-32.09Z"/><path d="M524.61,35.84h17.76c8,0,12.68,4.54,12.68,12.88v19.21h-7.12v-17.99c0-4.68-2.37-7.46-5.76-7.46h-10.44v25.45h-7.12v-32.09Z"/><path d="M415.99,24.84h30.7v6.53h-23.49v12.12h21.81v6.46h-21.81v17.97h-7.2V24.84Z"/><path d="M449.2,51.97c0-9.76,7.2-16.96,17.17-16.96s17.23,7.14,17.23,16.96-7.2,16.9-17.23,16.9-17.17-7.14-17.17-16.9ZM464.48,62.47h3.84c4.38,0,8.21-4.64,8.21-10.5s-3.84-10.57-8.21-10.57h-3.84c-4.38,0-8.21,4.78-8.21,10.57s3.84,10.5,8.21,10.5Z"/><path d="M488.07,56.08v-20.13h7.07v18.92c0,4.65,2.36,7.41,5.45,7.41h3.84c3.3,0,6.26-3.03,6.26-7.41v-18.92h7.07v31.98h-6.87v-4.38c-1.95,3.3-5.32,5.32-10.5,5.32-7.74,0-12.32-4.51-12.32-12.79Z"/><path d="M559.74,51.91c0-9.96,6.46-16.9,15.69-16.9,4.78,0,8.55,2.22,10.57,4.85v-16.36h7.14v44.43h-6.93v-4.51c-2.42,3.1-5.92,5.45-10.97,5.45-9.29,0-15.48-6.93-15.48-16.97ZM574.75,62.54h4.24c3.97,0,7-3.37,7-7.74v-5.59c0-4.24-2.83-7.88-7-7.88h-4.24c-4.38,0-7.94,4.71-7.94,10.57s3.57,10.64,7.94,10.64Z"/><path d="M598.27,51.91c0-9.96,6.46-16.9,15.69-16.9,4.78,0,8.68,2.22,10.77,4.78v-3.84h6.93v31.98h-6.93v-4.51c-2.42,3.1-5.92,5.45-10.97,5.45-9.29,0-15.48-6.93-15.48-16.97ZM613.29,62.54h4.24c3.97,0,7-3.37,7-7.74v-5.59c0-4.24-2.83-7.88-7-7.88h-4.24c-4.38,0-7.94,4.71-7.94,10.57s3.57,10.64,7.94,10.64Z"/><path d="M641.44,60.46v-18.31h-6.19v-6.19h6.19v-8.95h7.14v8.95h20.85l-5.32,6.19h-15.53v16.29c0,2.09.67,3.1,2.96,3.1h5.65v6.4h-7.67c-5.18,0-8.08-2.69-8.08-7.47Z"/><path d="M663.5,42.35v-6.39s7.14,0,7.14,0v31.98h-7.14v-25.58ZM663.49,23.5h7.28v7.47h-7.28v-7.47Z"/><path d="M675.48,51.97c0-9.76,7.2-16.96,17.17-16.96s17.23,7.14,17.23,16.96-7.2,16.9-17.23,16.9-17.17-7.14-17.17-16.9ZM690.76,62.47h3.84c4.38,0,8.21-4.64,8.21-10.5s-3.84-10.57-8.21-10.57h-3.84c-4.38,0-8.21,4.78-8.21,10.57s3.84,10.5,8.21,10.5Z"/></svg>